<svg width="20" height="24" viewBox="0 0 20 24" fill="none" xmlns="http://www.w3.org/2000/svg">
<path d="M17.8055 24H2.86829C1.78454 24 0.902344 23.1178 0.902344 22.0341V17.0784C0.902344 16.8713 1.07016 16.7034 1.27734 16.7034H13.897C14.1642 16.7034 14.3808 16.4859 14.3808 16.2188V10.0144C14.3808 9.74719 14.1642 9.53063 13.897 9.53063H1.27734C1.07016 9.53063 0.902344 9.36281 0.902344 9.15563V1.96594C0.902344 0.882188 1.78454 0 2.86829 0H13.6411C13.8483 0 14.0161 0.167812 14.0161 0.375V5.15906C14.0161 5.48812 14.2833 5.75531 14.6123 5.75531H19.3964C19.6036 5.75531 19.7714 5.92312 19.7714 6.13031V22.0341C19.7723 23.1178 18.8902 24 17.8055 24ZM1.65328 17.4534V22.0341C1.65328 22.7044 2.19892 23.25 2.86923 23.25H17.8064C18.4767 23.25 19.0223 22.7044 19.0223 22.0341V6.50531H14.6133C13.8708 6.50531 13.267 5.90156 13.267 5.15906V0.75H2.86923C2.19892 0.75 1.65328 1.29563 1.65328 1.96594V8.78063H13.898C14.5786 8.78063 15.1317 9.33375 15.1317 10.0144V16.2188C15.1317 16.8994 14.5786 17.4534 13.898 17.4534H1.65328Z" fill="#233735"/>
</svg>
